<?xml version="1.0" encoding="utf-8"?>
<svg xmlns="http://www.w3.org/2000/svg" width="24" height="24" viewBox="0 0 24 24">
    <g id="special-character" fill-rule="evenodd">
	<path d="
		M4 7 v10 a1 1 0 0 0 1 1 h12.75 a1 1 0 0 0 1 -1 v-10 a1 1 0 0 0 -1 -1 h-12.75 a1 1 0 0 0 -1 1z
		M6 8 v1.75 h1.75 v-1.75z
		M9 8 v1.75 h1.75 v-1.75z
		M12 8 v1.75 h1.75 v-1.75z
		M15 8 v1.75 h1.75 v-1.75z
		M6 11 v1.75 h1.75 v-1.75z
		M9 11 v1.75 h1.75 v-1.75z
		M12 11 v1.75 h1.75 v-1.75z
		M15 11 v1.75 h1.75 v-1.75z
		M7 14.25 v1.75 h9 v-1.75z
	"/>
    </g>
</svg>
