<?xml version="1.0" encoding="iso-8859-1"?>
<!DOCTYPE svg PUBLIC "-//W3C//DTD SVG 1.1//EN" "http://www.w3.org/Graphics/SVG/1.1/DTD/svg11.dtd">
<svg version="1.1" xmlns="http://www.w3.org/2000/svg" xmlns:xlink="http://www.w3.org/1999/xlink" x="0px" y="0px" width="24px"
	 height="24px" viewBox="0 0 24 24" style="enable-background:new 0 0 24 24;" xml:space="preserve">
<g id="align-float-right" style="opacity:0.75;">
	<path id="object" d="m 13,6 7,0 c 0.554,0 1,0.446 1,1 l 0,5 c 0,0.554 -0.446,1 -1,1 l -7,0 c -0.554,0 -1,-0.446 -1,-1 l 0,-5 c 0,-0.554 0.446,-1 1,-1 z"/>
	<path id="line1" d="m 3.5,6 6,0 C 9.777,6 10,6.223 10,6.5 10,6.777 9.777,7 9.5,7 l -6,0 C 3.223,7 3,6.777 3,6.5 3,6.223 3.223,6 3.5,6 z"/>
	<path id="line2" d="m 3.5,9 6,0 C 9.777,9 10,9.223 10,9.5 10,9.777 9.777,10 9.5,10 l -6,0 C 3.223,10 3,9.777 3,9.5 3,9.223 3.223,9 3.5,9 z"/>
	<path id="line3" d="m 3.5,12 6,0 C 9.777,12 10,12.223 10,12.5 10,12.777 9.777,13 9.5,13 l -6,0 C 3.223,13 3,12.777 3,12.5 3,12.223 3.223,12 3.5,12 z"/>
	<path id="line4" d="m 3.5,15 17,0 c 0.277,0 0.5,0.223 0.5,0.5 0,0.277 -0.223,0.5 -0.5,0.5 l -17,0 C 3.223,16 3,15.777 3,15.5 3,15.223 3.223,15 3.5,15 z"/>
	<path id="line5" d="m 3.5,18 17,0 c 0.277,0 0.5,0.223 0.5,0.5 0,0.277 -0.223,0.5 -0.5,0.5 l -17,0 C 3.223,19 3,18.777 3,18.5 3,18.223 3.223,18 3.5,18 z"/>
</g>
</svg>