<?xml version="1.0" encoding="UTF-8" standalone="no"?>
<svg
   xmlns:dc="http://purl.org/dc/elements/1.1/"
   xmlns:cc="http://creativecommons.org/ns#"
   xmlns:rdf="http://www.w3.org/1999/02/22-rdf-syntax-ns#"
   xmlns:svg="http://www.w3.org/2000/svg"
   xmlns="http://www.w3.org/2000/svg"
   xml:space="preserve"
   enable-background="new 72.5 191.5 641 225"
   viewBox="72.5 191.5 400 225"
   height="225"
   width="400"
   y="0px"
   x="0px"
   id="Layer_1"
   version="1.1"><metadata
     id="metadata37"><rdf:RDF><cc:Work
         rdf:about=""><dc:format>image/svg+xml</dc:format><dc:type
           rdf:resource="http://purl.org/dc/dcmitype/StillImage" /><dc:title></dc:title></cc:Work></rdf:RDF></metadata><defs
     id="defs35" /><path
     d="m 134.98566,339.34038 -28.42,-64.12 h 13.58 l 16.94,38.64 16.52,-38.64 h 13.3 l -27.72,64.12 z"
     style="font-size:140px;line-height:25px;font-family:GillSans;-inkscape-font-specification:GillSans;text-align:start;letter-spacing:0px;word-spacing:0px;text-anchor:start;fill:#2ba9e0;fill-opacity:1;stroke:none;stroke-width:1px;stroke-linecap:butt;stroke-linejoin:miter;stroke-opacity:1"
     id="path4268" /><path
     d="m 225.98129,319.88038 v 12.04 q -0.84,0.7 -1.82,1.26 -0.84,0.56 -1.68,0.98 -4.76,2.8 -9.8,3.92 -5.04,1.26 -11.76,1.26 -14.7,0 -22.68,-10.08 -7.84,-10.22 -7.84,-23.24 0,-14.28 8.12,-23.1 8.26,-8.82 21.28,-8.82 12.46,0 19.88,8.54 7.42,8.54 7.42,26.04 l -44.24,-0.14 q 1.54,9.52 6.86,14.28 5.32,4.76 14.28,4.76 4.2,0 8.26,-1.12 4.2,-1.12 8.26,-3.22 1.4,-0.7 2.66,-1.54 1.4,-0.84 2.8,-1.68 z m -42.84,-19.6 h 31.64 q -0.28,-7 -4.2,-11.2 -3.92,-4.2 -10.5,-4.2 -7.14,0 -11.48,4.06 -4.2,4.06 -5.46,11.48 z"
     style="font-size:140px;line-height:25px;font-family:GillSans;-inkscape-font-specification:GillSans;text-align:start;letter-spacing:0px;word-spacing:0px;text-anchor:start;fill:#9acc59;fill-opacity:1;stroke:none;stroke-width:1px;stroke-linecap:butt;stroke-linejoin:miter;stroke-opacity:1"
     id="path4270" /><path
     d="m 252.09347,336.54038 v 33.74 h -12.46 v -95.06 h 21.56 q 17.22,0.14 26.32,8.4 9.1,8.12 9.1,23.66 0,14.14 -8.96,23.1 -8.96,8.96 -22.96,8.96 -0.7,0 -1.4,0 -0.56,0 -1.26,-0.14 -2.38,-0.28 -4.76,-0.84 -2.38,-0.56 -5.18,-1.68 z m 0,-50.12 v 38.92 q 1.96,0.98 3.92,1.68 1.96,0.56 3.92,0.98 0.98,0.14 1.96,0.28 0.98,0 1.96,0 8.68,0 14.28,-6.02 5.74,-6.02 5.74,-15.12 0,-9.8 -5.18,-15.12 -5.04,-5.46 -15.26,-5.46 z"
     style="font-size:140px;line-height:25px;font-family:GillSans;-inkscape-font-specification:GillSans;text-align:start;letter-spacing:0px;word-spacing:0px;text-anchor:start;fill:#999999;fill-opacity:1;stroke:none;stroke-width:1px;stroke-linecap:butt;stroke-linejoin:miter;stroke-opacity:1"
     id="path4272" /><path
     d="m 359.19347,326.88038 v 7.56 q -2.94,2.1 -4.9,3.08 -1.96,0.98 -3.78,1.4 -0.84,0.28 -1.68,0.28 -0.7,0.14 -1.68,0.14 -4.06,0 -6.44,-1.4 -2.24,-1.54 -3.08,-4.9 -4.06,3.22 -8.4,4.76 -4.2,1.54 -8.54,1.54 -6.86,0 -11.2,-4.62 -4.2,-4.62 -4.2,-10.64 0,-8.4 5.74,-12.32 5.74,-3.92 12.6,-6.44 0.84,-0.28 1.54,-0.56 0.84,-0.28 1.54,-0.56 l 11.06,-4.06 v -3.36 q 0,-5.74 -2.8,-8.26 -2.8,-2.66 -8.54,-2.66 -0.7,0 -1.4,0.14 -0.56,0 -1.12,0 -4.62,0.56 -9.1,3.08 -4.34,2.52 -8.26,7.14 v -13.72 q 3.64,-4.2 8.82,-6.3 5.18,-2.1 12.04,-2.1 9.52,0 16.1,5.04 6.72,4.9 6.72,15.68 v 32.2 q 0,1.96 0.56,2.66 0.7,0.7 1.82,0.7 0.98,0 2.66,-0.84 1.82,-0.98 3.92,-2.52 z m -21.42,-1.54 v -18.34 q -7.98,2.8 -14,6.02 -5.88,3.22 -5.88,8.82 0,3.92 2.52,6.44 2.52,2.38 6.44,2.38 2.94,0 5.6,-1.4 2.8,-1.4 5.32,-3.78 z"
     style="font-size:140px;line-height:25px;font-family:GillSans;-inkscape-font-specification:GillSans;text-align:start;letter-spacing:0px;word-spacing:0px;text-anchor:start;fill:#999999;fill-opacity:1;stroke:none;stroke-width:1px;stroke-linecap:butt;stroke-linejoin:miter;stroke-opacity:1"
     id="path4274" /><path
     d="m 424.67629,242.60038 v 95.48 h -26.46 q -14,0 -22.26,-8.82 -8.26,-8.82 -8.26,-23.94 0,-13.72 8.82,-22.4 8.82,-8.82 22.54,-8.82 0.7,0 1.26,0 0.56,0 1.26,0.14 2.52,0.14 5.04,0.7 2.52,0.56 5.6,1.68 v -34.02 z m -12.46,84.98 v -40.04 q -1.54,-0.56 -3.08,-0.98 -1.4,-0.42 -2.66,-0.7 -1.4,-0.28 -2.94,-0.42 -1.4,-0.14 -2.94,-0.14 -8.96,0 -14.56,6.02 -5.6,5.88 -5.6,15.82 0,8.82 4.2,14.7 4.2,5.88 14.98,5.88 z"
     style="font-size:140px;line-height:25px;font-family:GillSans;-inkscape-font-specification:GillSans;text-align:start;letter-spacing:0px;word-spacing:0px;text-anchor:start;fill:#999999;fill-opacity:1;stroke:none;stroke-width:1px;stroke-linecap:butt;stroke-linejoin:miter;stroke-opacity:1"
     id="path4276" /></svg>